# xmcd
#
# Track frame offsets: 
#        150
#        13836
#        32540
#        50865
#        65035
#        80459
#        95695
#        118458
#        130944
#        146421
#        159725
#        174544
#        185781
#        199467
#
# Disc length: 2890 seconds
#
# Revision: 0
# Processed by: cddbd v1.5.2PL0 Copyright (c) Steve Scherf et al.
# Submitted via: ExactAudioCopyFreeDBPlugin 1.0
#
DISCID=da0b480e
DTITLE=Country Dave Harmonson - Alive and Pickin'
DYEAR=1900
DGENRE=Country
TTITLE0=Streets of Baltimore
TTITLE1=I'm A Ramblin' Man
TTITLE2=Tennessee Blues
TTITLE3=The End is not in Sight
TTITLE4=White Line Fever
TTITLE5=Close Up the Honky Tonks
TTITLE6=Funny How Time Slips Away
TTITLE7=No Blues is Good News
TTITLE8=Me and My Uncle
TTITLE9=I Got a Good Woman
TTITLE10=Let Me Go Home Whiskey
TTITLE11=Mama Tried
TTITLE12=Just Walk on By
TTITLE13=Angel Flying Too Close to the Ground
EXTD=
EXTT0=
EXTT1=
EXTT2=
EXTT3=
EXTT4=
EXTT5=
EXTT6=
EXTT7=
EXTT8=
EXTT9=
EXTT10=
EXTT11=
EXTT12=
EXTT13=
PLAYORDER=
